<svg width="1920" height="240" viewBox="0 0 1920 240" xmlns="http://www.w3.org/2000/svg"><path d="M1920,240C1600.8333333333333,255.5,286,250.33333333333334,0,240C-286,229.66666666666666,134,191.33333333333334,204,178C274,164.66666666666666,348.8333333333333,161,420,160C491.1666666666667,159,559.8333333333334,160.33333333333334,631,172C702.1666666666666,183.66666666666666,775.5,233.83333333333334,847,230C918.5,226.16666666666666,988.1666666666666,159.33333333333334,1060,149C1131.8333333333333,138.66666666666666,1206,158.33333333333334,1278,168C1350,177.66666666666666,1421,202.66666666666666,1492,207C1563,211.33333333333334,1633.5,204,1704,194C1774.5,184,1879,139.33333333333334,1915,147C1951,154.66666666666666,2239.1666666666665,224.5,1920,240C1600.8333333333333,255.5,286,250.33333333333334,0,240" fill="#c0d9f2"/></svg>