<svg width="1920" height="240" viewBox="0 0 1920 240" xmlns="http://www.w3.org/2000/svg"><path d="M1920,240C1621.6666666666667,241.16666666666666,299.3333333333333,254.33333333333334,0,240C-299.3333333333333,225.66666666666666,82.5,160.33333333333334,124,154C165.5,147.66666666666666,205.83333333333334,206.66666666666666,249,202C292.1666666666667,197.33333333333334,340.3333333333333,122.33333333333333,383,126C425.6666666666667,129.66666666666666,463.3333333333333,224.5,505,224C546.6666666666666,223.5,589.6666666666666,126.66666666666667,633,123C676.3333333333334,119.33333333333333,722.1666666666666,189,765,202C807.8333333333334,215,848,199.33333333333334,890,201C932,202.66666666666666,974,218.66666666666666,1017,212C1060,205.33333333333334,1104.6666666666667,171.33333333333334,1148,161C1191.3333333333333,150.66666666666666,1234,139.83333333333334,1277,150C1320,160.16666666666666,1363.6666666666667,226.66666666666666,1406,222C1448.3333333333333,217.33333333333334,1488.6666666666667,134.33333333333334,1531,122C1573.3333333333333,109.66666666666667,1616.8333333333333,129.5,1660,148C1703.1666666666667,166.5,1746.6666666666667,217.66666666666666,1790,233C1833.3333333333333,248.33333333333334,2218.3333333333335,238.83333333333334,1920,240C1621.6666666666667,241.16666666666666,299.3333333333333,254.33333333333334,0,240" fill="#f1f5f9"/></svg>