<svg width="1920" height="240" viewBox="0 0 1920 240" xmlns="http://www.w3.org/2000/svg"><path d="M1920,240C1633.1666666666667,254,289.3333333333333,242.83333333333334,0,240C-289.3333333333333,237.16666666666666,121.5,231.66666666666666,184,223C246.5,214.33333333333334,310.3333333333333,188,375,188C439.6666666666667,188,507.5,216.66666666666666,572,223C636.5,229.33333333333334,698.6666666666666,227.5,762,226C825.3333333333334,224.5,887.3333333333334,212.66666666666666,952,214C1016.6666666666666,215.33333333333334,1085.6666666666667,247.33333333333334,1150,234C1214.3333333333333,220.66666666666666,1274.8333333333333,143.66666666666666,1338,134C1401.1666666666667,124.33333333333333,1465.1666666666667,172.33333333333334,1529,176C1592.8333333333333,179.66666666666666,1655.8333333333333,145.33333333333334,1721,156C1786.1666666666667,166.66666666666666,2206.8333333333335,226,1920,240C1633.1666666666667,254,289.3333333333333,242.83333333333334,0,240" fill="#f1f5f9"/></svg>